<svg width="171" height="171" viewBox="0 0 171 171" fill="none" xmlns="http://www.w3.org/2000/svg">
<path fill-rule="evenodd" clip-rule="evenodd" d="M85.5 49.875C57.9548 49.875 35.625 72.2048 35.625 99.75C35.625 127.295 57.9548 149.625 85.5 149.625C113.045 149.625 135.375 127.295 135.375 99.75C135.375 72.2048 113.045 49.875 85.5 49.875ZM21.375 99.75C21.375 64.3347 50.0847 35.625 85.5 35.625C120.915 35.625 149.625 64.3347 149.625 99.75C149.625 135.165 120.915 163.875 85.5 163.875C50.0847 163.875 21.375 135.165 21.375 99.75Z" fill="url(#paint0_linear_60_1524)"/>
<path fill-rule="evenodd" clip-rule="evenodd" d="M114 21.375H57V7.125H114V21.375Z" fill="url(#paint1_linear_60_1524)"/>
<path d="M86.0949 110.421C85.8979 110.432 85.6996 110.438 85.5 110.438C79.5975 110.438 74.8125 105.653 74.8125 99.75C74.8125 93.8475 79.5975 89.0625 85.5 89.0625C91.4025 89.0625 96.1875 93.8475 96.1875 99.75C96.1875 99.9497 96.182 100.148 96.1712 100.345L116.615 120.789L106.539 130.865L86.0949 110.421Z" fill="url(#paint2_linear_60_1524)"/>
<defs>
<linearGradient id="paint0_linear_60_1524" x1="43.5658" y1="2.34155" x2="105.257" y2="323.193" gradientUnits="userSpaceOnUse">
<stop stop-color="#3A3A3A"/>
<stop offset="1" stop-color="#131313"/>
</linearGradient>
<linearGradient id="paint1_linear_60_1524" x1="43.5658" y1="2.34155" x2="105.257" y2="323.193" gradientUnits="userSpaceOnUse">
<stop stop-color="#3A3A3A"/>
<stop offset="1" stop-color="#131313"/>
</linearGradient>
<linearGradient id="paint2_linear_60_1524" x1="43.5658" y1="2.34155" x2="105.257" y2="323.193" gradientUnits="userSpaceOnUse">
<stop stop-color="#3A3A3A"/>
<stop offset="1" stop-color="#131313"/>
</linearGradient>
</defs>
</svg>
